<svg width="113" height="48" viewBox="0 0 113 48" fill="none" xmlns="http://www.w3.org/2000/svg">
<path d="M4 12L17.826 19.8339C22.9232 22.722 25.0768 22.722 30.174 19.8339L44 12" stroke="#317039" stroke-width="3" stroke-linejoin="round"/>
<path d="M4.03154 26.9512C4.16228 33.0824 4.22766 36.1478 6.48992 38.4188C8.75216 40.6896 11.9007 40.7686 18.1977 40.9268C22.0786 41.0244 25.9214 41.0244 29.8024 40.9268C36.0994 40.7686 39.2478 40.6896 41.5102 38.4188C43.7724 36.1478 43.8378 33.0824 43.9684 26.9512C44.0106 24.9798 44.0106 23.0202 43.9684 21.0488C43.8378 14.9177 43.7724 11.8522 41.5102 9.58132C39.2478 7.31046 36.0994 7.23136 29.8024 7.07314C25.9214 6.97562 22.0786 6.97562 18.1976 7.07312C11.9007 7.23132 8.75216 7.31042 6.4899 9.5813C4.22764 11.8522 4.16228 14.9177 4.03152 21.0488C3.98948 23.0202 3.9895 24.9798 4.03154 26.9512Z" stroke="#317039" stroke-width="3" stroke-linejoin="round"/>
<path d="M20.8887 40.5625L28.8331 20.25L39.6665 30" stroke="#CC4B24" stroke-width="4"/>
<circle cx="22" cy="41" r="5" fill="#CC4B24"/>
<circle cx="30" cy="21" r="5" fill="#CC4B24"/>
<circle cx="42" cy="31" r="5" fill="#CC4B24"/>
<path d="M57.016 22L55.432 12.28H56.56L57.604 19.264L58.912 12.316H59.872L61.192 19.3L62.212 12.28H63.316L61.756 22H60.772L59.416 14.8L58.048 22H57.016ZM65.9821 22.096C65.4381 22.096 65.0181 21.992 64.7221 21.784C64.4261 21.568 64.2181 21.256 64.0981 20.848C63.9861 20.432 63.9301 19.924 63.9301 19.324V17.74C63.9301 17.124 63.9901 16.612 64.1101 16.204C64.2301 15.796 64.4381 15.488 64.7341 15.28C65.0381 15.072 65.4541 14.968 65.9821 14.968C66.5661 14.968 66.9941 15.088 67.2661 15.328C67.5461 15.568 67.7301 15.916 67.8181 16.372C67.9061 16.82 67.9501 17.36 67.9501 17.992V18.556H65.2141V19.948C65.2141 20.228 65.2381 20.456 65.2861 20.632C65.3421 20.808 65.4261 20.94 65.5381 21.028C65.6581 21.108 65.8101 21.148 65.9941 21.148C66.1861 21.148 66.3301 21.104 66.4261 21.016C66.5301 20.92 66.5981 20.788 66.6301 20.62C66.6701 20.444 66.6901 20.24 66.6901 20.008V19.588H67.9381V19.852C67.9381 20.548 67.7901 21.096 67.4941 21.496C67.1981 21.896 66.6941 22.096 65.9821 22.096ZM65.2141 17.86H66.6901V17.236C66.6901 16.948 66.6741 16.708 66.6421 16.516C66.6101 16.316 66.5421 16.168 66.4381 16.072C66.3421 15.968 66.1861 15.916 65.9701 15.916C65.7621 15.916 65.6021 15.964 65.4901 16.06C65.3861 16.156 65.3141 16.32 65.2741 16.552C65.2341 16.776 65.2141 17.088 65.2141 17.488V17.86ZM71.5968 22.096C71.3488 22.096 71.1248 22.036 70.9248 21.916C70.7328 21.788 70.5648 21.648 70.4208 21.496V22H69.1368V12.28H70.4208V15.616C70.5728 15.44 70.7528 15.288 70.9608 15.16C71.1768 15.032 71.4328 14.968 71.7288 14.968C72.0888 14.968 72.3728 15.064 72.5808 15.256C72.7968 15.44 72.9568 15.676 73.0608 15.964C73.1648 16.244 73.2328 16.532 73.2648 16.828C73.2968 17.116 73.3128 17.364 73.3128 17.572V19.252C73.3128 19.74 73.2648 20.204 73.1688 20.644C73.0728 21.076 72.9008 21.428 72.6528 21.7C72.4048 21.964 72.0528 22.096 71.5968 22.096ZM71.3328 21.088C71.5568 21.088 71.7168 21.008 71.8128 20.848C71.9088 20.68 71.9688 20.456 71.9928 20.176C72.0168 19.896 72.0288 19.588 72.0288 19.252V17.572C72.0288 17.284 72.0128 17.02 71.9808 16.78C71.9488 16.532 71.8808 16.336 71.7768 16.192C71.6728 16.048 71.5088 15.976 71.2848 15.976C71.1168 15.976 70.9568 16.012 70.8048 16.084C70.6608 16.156 70.5328 16.236 70.4208 16.324V20.776C70.5328 20.864 70.6648 20.94 70.8168 21.004C70.9768 21.06 71.1488 21.088 71.3328 21.088ZM74.48 22V15.064H75.668V15.724C75.9 15.46 76.156 15.264 76.436 15.136C76.716 15.008 77.004 14.944 77.3 14.944C77.556 14.944 77.784 15.008 77.984 15.136C78.192 15.264 78.34 15.492 78.428 15.82C78.676 15.516 78.944 15.296 79.232 15.16C79.528 15.016 79.836 14.944 80.156 14.944C80.38 14.944 80.584 15 80.768 15.112C80.952 15.216 81.1 15.388 81.212 15.628C81.324 15.86 81.38 16.168 81.38 16.552V22H80.204V16.636C80.204 16.3 80.148 16.076 80.036 15.964C79.932 15.844 79.788 15.784 79.604 15.784C79.428 15.784 79.244 15.836 79.052 15.94C78.86 16.036 78.684 16.172 78.524 16.348C78.524 16.38 78.524 16.412 78.524 16.444C78.524 16.476 78.524 16.512 78.524 16.552V22H77.348V16.636C77.348 16.3 77.292 16.076 77.18 15.964C77.076 15.844 76.932 15.784 76.748 15.784C76.572 15.784 76.388 15.836 76.196 15.94C76.012 16.036 75.836 16.172 75.668 16.348V22H74.48ZM83.6803 22.096C83.4083 22.096 83.1683 22.02 82.9603 21.868C82.7523 21.708 82.5883 21.508 82.4683 21.268C82.3483 21.02 82.2883 20.76 82.2883 20.488C82.2883 20.056 82.3603 19.692 82.5043 19.396C82.6483 19.1 82.8443 18.852 83.0923 18.652C83.3483 18.444 83.6403 18.264 83.9683 18.112C84.3043 17.96 84.6563 17.812 85.0243 17.668V17.176C85.0243 16.896 85.0083 16.664 84.9763 16.48C84.9443 16.296 84.8763 16.16 84.7723 16.072C84.6763 15.976 84.5283 15.928 84.3283 15.928C84.1523 15.928 84.0083 15.968 83.8963 16.048C83.7923 16.128 83.7163 16.244 83.6683 16.396C83.6203 16.54 83.5963 16.712 83.5963 16.912V17.26L82.3243 17.212C82.3403 16.444 82.5163 15.88 82.8523 15.52C83.1883 15.152 83.7083 14.968 84.4123 14.968C85.1003 14.968 85.5883 15.156 85.8763 15.532C86.1643 15.908 86.3083 16.452 86.3083 17.164V20.332C86.3083 20.548 86.3123 20.756 86.3203 20.956C86.3363 21.156 86.3523 21.344 86.3683 21.52C86.3923 21.688 86.4123 21.848 86.4283 22H85.2523C85.2283 21.872 85.1963 21.712 85.1563 21.52C85.1243 21.32 85.1003 21.14 85.0843 20.98C85.0043 21.252 84.8483 21.508 84.6163 21.748C84.3923 21.98 84.0803 22.096 83.6803 22.096ZM84.1843 20.992C84.3123 20.992 84.4323 20.956 84.5443 20.884C84.6563 20.812 84.7563 20.732 84.8443 20.644C84.9323 20.548 84.9923 20.472 85.0243 20.416V18.448C84.8243 18.56 84.6363 18.672 84.4603 18.784C84.2843 18.896 84.1283 19.016 83.9923 19.144C83.8643 19.264 83.7603 19.404 83.6803 19.564C83.6083 19.716 83.5723 19.892 83.5723 20.092C83.5723 20.372 83.6243 20.592 83.7283 20.752C83.8323 20.912 83.9843 20.992 84.1843 20.992ZM87.6304 22V15.064H88.9144V22H87.6304ZM87.6304 14.032V12.688H88.9144V14.032H87.6304ZM90.4086 22V12.28H91.6926V22H90.4086ZM97.921 22.108C97.481 22.108 97.101 22.016 96.781 21.832C96.469 21.64 96.229 21.38 96.061 21.052C95.901 20.724 95.821 20.348 95.821 19.924C95.821 19.308 95.957 18.776 96.229 18.328C96.509 17.872 96.845 17.468 97.237 17.116C97.093 16.828 96.937 16.54 96.769 16.252C96.609 15.956 96.469 15.652 96.349 15.34C96.237 15.02 96.181 14.688 96.181 14.344C96.181 13.912 96.265 13.536 96.433 13.216C96.601 12.896 96.841 12.648 97.153 12.472C97.465 12.288 97.833 12.196 98.257 12.196C98.649 12.196 98.997 12.268 99.301 12.412C99.613 12.556 99.861 12.764 100.045 13.036C100.229 13.3 100.321 13.62 100.321 13.996C100.321 14.42 100.221 14.828 100.021 15.22C99.829 15.604 99.593 15.964 99.313 16.3C99.033 16.628 98.761 16.92 98.497 17.176L99.961 19.48C100.049 19.312 100.121 19.124 100.177 18.916C100.241 18.7 100.293 18.472 100.333 18.232C100.381 17.992 100.417 17.76 100.441 17.536H101.713C101.713 17.848 101.665 18.176 101.569 18.52C101.481 18.864 101.365 19.192 101.221 19.504C101.077 19.808 100.929 20.068 100.777 20.284C100.881 20.412 101.017 20.528 101.185 20.632C101.353 20.728 101.533 20.776 101.725 20.776V22.096C101.693 22.096 101.661 22.096 101.629 22.096C101.605 22.096 101.581 22.096 101.557 22.096C101.325 22.088 101.117 22.036 100.933 21.94C100.749 21.836 100.581 21.712 100.429 21.568C100.285 21.424 100.145 21.288 100.009 21.16C99.793 21.432 99.509 21.66 99.157 21.844C98.813 22.02 98.401 22.108 97.921 22.108ZM97.921 21.04C98.225 21.04 98.481 20.968 98.689 20.824C98.897 20.672 99.077 20.504 99.229 20.32L97.741 18.028C97.549 18.276 97.393 18.568 97.273 18.904C97.161 19.232 97.105 19.572 97.105 19.924C97.105 20.108 97.129 20.288 97.177 20.464C97.225 20.632 97.309 20.772 97.429 20.884C97.549 20.988 97.713 21.04 97.921 21.04ZM98.053 16.48C98.221 16.28 98.377 16.044 98.521 15.772C98.673 15.5 98.797 15.212 98.893 14.908C98.989 14.596 99.037 14.292 99.037 13.996C99.037 13.764 98.965 13.584 98.821 13.456C98.677 13.32 98.489 13.252 98.257 13.252C97.969 13.252 97.765 13.364 97.645 13.588C97.525 13.812 97.465 14.064 97.465 14.344C97.465 14.712 97.525 15.08 97.645 15.448C97.773 15.808 97.909 16.152 98.053 16.48ZM55.54 37V31.22H56.61V31.79C56.8033 31.61 57.0167 31.4567 57.25 31.33C57.4833 31.2033 57.74 31.14 58.02 31.14C58.2533 31.14 58.43 31.2 58.55 31.32C58.6767 31.44 58.7633 31.59 58.81 31.77C58.8633 31.95 58.89 32.1333 58.89 32.32V37H57.82V32.63C57.82 32.4233 57.79 32.2633 57.73 32.15C57.67 32.0367 57.5467 31.98 57.36 31.98C57.24 31.98 57.1133 32.0167 56.98 32.09C56.8533 32.1567 56.73 32.24 56.61 32.34V37H55.54ZM61.8945 37.09C61.4079 37.09 61.0179 36.9933 60.7245 36.8C60.4312 36.6067 60.2179 36.3333 60.0845 35.98C59.9579 35.62 59.8945 35.2 59.8945 34.72C59.8945 34.4467 59.9179 34.2067 59.9645 34C60.0112 33.7933 60.0779 33.6133 60.1645 33.46C60.2579 33.3 60.3645 33.1633 60.4845 33.05C60.6112 32.93 60.7479 32.8233 60.8945 32.73C60.6279 32.55 60.4112 32.3167 60.2445 32.03C60.0779 31.7367 59.9945 31.3667 59.9945 30.92C59.9945 30.4933 60.0612 30.1233 60.1945 29.81C60.3279 29.4967 60.5345 29.2567 60.8145 29.09C61.1012 28.9167 61.4612 28.83 61.8945 28.83C62.3279 28.83 62.6812 28.9167 62.9545 29.09C63.2345 29.2567 63.4412 29.4967 63.5745 29.81C63.7079 30.1233 63.7745 30.4933 63.7745 30.92C63.7745 31.3733 63.6912 31.7433 63.5245 32.03C63.3645 32.3167 63.1479 32.55 62.8745 32.73C63.0212 32.8233 63.1545 32.93 63.2745 33.05C63.4012 33.1633 63.5079 33.3 63.5945 33.46C63.6879 33.6133 63.7579 33.7933 63.8045 34C63.8579 34.2067 63.8845 34.4467 63.8845 34.72C63.8845 35.2 63.8179 35.62 63.6845 35.98C63.5579 36.3333 63.3479 36.6067 63.0545 36.8C62.7679 36.9933 62.3812 37.09 61.8945 37.09ZM61.8945 36.24C62.1545 36.24 62.3545 36.1733 62.4945 36.04C62.6345 35.9067 62.7279 35.7267 62.7745 35.5C62.8279 35.2733 62.8545 35.02 62.8545 34.74C62.8545 34.4867 62.8245 34.25 62.7645 34.03C62.7112 33.8033 62.6145 33.62 62.4745 33.48C62.3345 33.3333 62.1412 33.26 61.8945 33.26C61.6479 33.26 61.4512 33.33 61.3045 33.47C61.1645 33.61 61.0645 33.7933 61.0045 34.02C60.9445 34.24 60.9145 34.48 60.9145 34.74C60.9145 35.02 60.9412 35.2733 60.9945 35.5C61.0479 35.7267 61.1445 35.9067 61.2845 36.04C61.4312 36.1733 61.6345 36.24 61.8945 36.24ZM61.8945 32.24C62.1212 32.2333 62.2912 32.1633 62.4045 32.03C62.5245 31.8967 62.6079 31.7267 62.6545 31.52C62.7012 31.3067 62.7245 31.0867 62.7245 30.86C62.7245 30.5267 62.6645 30.2433 62.5445 30.01C62.4245 29.7767 62.2079 29.66 61.8945 29.66C61.5812 29.66 61.3612 29.7767 61.2345 30.01C61.1079 30.2433 61.0445 30.5267 61.0445 30.86C61.0445 31.0867 61.0679 31.3067 61.1145 31.52C61.1612 31.7267 61.2445 31.8967 61.3645 32.03C61.4912 32.1633 61.6679 32.2333 61.8945 32.24ZM64.9248 37V31.22H65.9948V31.79C66.1881 31.61 66.4014 31.4567 66.6348 31.33C66.8681 31.2033 67.1248 31.14 67.4048 31.14C67.6381 31.14 67.8148 31.2 67.9348 31.32C68.0614 31.44 68.1481 31.59 68.1948 31.77C68.2481 31.95 68.2748 32.1333 68.2748 32.32V37H67.2048V32.63C67.2048 32.4233 67.1748 32.2633 67.1148 32.15C67.0548 32.0367 66.9314 31.98 66.7448 31.98C66.6248 31.98 66.4981 32.0167 66.3648 32.09C66.2381 32.1567 66.1148 32.24 65.9948 32.34V37H64.9248ZM71.2545 37L72.9745 28.9H74.0645L75.7945 37H74.7245L74.3545 34.96H72.7045L72.3145 37H71.2545ZM72.8545 34.15H74.2045L73.5245 30.5L72.8545 34.15ZM77.3563 37.08C77.1297 37.08 76.953 37.02 76.8263 36.9C76.6997 36.78 76.6097 36.63 76.5563 36.45C76.5097 36.27 76.4863 36.0867 76.4863 35.9V31.22H77.5563V35.58C77.5563 35.7867 77.5863 35.95 77.6463 36.07C77.7063 36.1833 77.8297 36.24 78.0163 36.24C78.1363 36.24 78.2597 36.2067 78.3863 36.14C78.5197 36.0667 78.6463 35.98 78.7663 35.88V31.22H79.8363V37H78.7663V36.43C78.5797 36.61 78.3663 36.7633 78.1263 36.89C77.893 37.0167 77.6363 37.08 77.3563 37.08ZM82.4706 37.08C82.1706 37.08 81.9273 37.0233 81.7406 36.91C81.5606 36.7967 81.4273 36.6367 81.3406 36.43C81.2606 36.2233 81.2206 35.98 81.2206 35.7V31.93H80.6106V31.22H81.2206V29.53H82.2906V31.22H83.2206V31.93H82.2906V35.63C82.2906 35.8567 82.3273 36.02 82.4006 36.12C82.474 36.2133 82.614 36.26 82.8206 36.26C82.874 36.26 82.934 36.2567 83.0006 36.25C83.074 36.2433 83.144 36.2367 83.2106 36.23V37.02C83.0773 37.04 82.954 37.0533 82.8406 37.06C82.7273 37.0733 82.604 37.08 82.4706 37.08ZM85.5968 37.08C85.1701 37.08 84.8335 36.9933 84.5868 36.82C84.3401 36.6467 84.1635 36.4 84.0568 36.08C83.9568 35.76 83.9068 35.3833 83.9068 34.95V33.27C83.9068 32.8367 83.9568 32.46 84.0568 32.14C84.1635 31.82 84.3401 31.5733 84.5868 31.4C84.8335 31.2267 85.1701 31.14 85.5968 31.14C86.0235 31.14 86.3568 31.2267 86.5968 31.4C86.8435 31.5733 87.0168 31.82 87.1168 32.14C87.2235 32.46 87.2768 32.8367 87.2768 33.27V34.95C87.2768 35.3833 87.2235 35.76 87.1168 36.08C87.0168 36.4 86.8435 36.6467 86.5968 36.82C86.3568 36.9933 86.0235 37.08 85.5968 37.08ZM85.5968 36.29C85.8035 36.29 85.9468 36.23 86.0268 36.11C86.1135 35.99 86.1635 35.8333 86.1768 35.64C86.1968 35.44 86.2068 35.2333 86.2068 35.02V33.21C86.2068 32.99 86.1968 32.7833 86.1768 32.59C86.1635 32.3967 86.1135 32.24 86.0268 32.12C85.9468 31.9933 85.8035 31.93 85.5968 31.93C85.3901 31.93 85.2435 31.9933 85.1568 32.12C85.0701 32.24 85.0168 32.3967 84.9968 32.59C84.9835 32.7833 84.9768 32.99 84.9768 33.21V35.02C84.9768 35.2333 84.9835 35.44 84.9968 35.64C85.0168 35.8333 85.0701 35.99 85.1568 36.11C85.2435 36.23 85.3901 36.29 85.5968 36.29ZM88.2548 37V31.22H89.2448V31.77C89.4382 31.55 89.6515 31.3867 89.8848 31.28C90.1182 31.1733 90.3582 31.12 90.6048 31.12C90.8182 31.12 91.0082 31.1733 91.1748 31.28C91.3482 31.3867 91.4715 31.5767 91.5448 31.85C91.7515 31.5967 91.9748 31.4133 92.2148 31.3C92.4615 31.18 92.7182 31.12 92.9848 31.12C93.1715 31.12 93.3415 31.1667 93.4948 31.26C93.6482 31.3467 93.7715 31.49 93.8648 31.69C93.9582 31.8833 94.0048 32.14 94.0048 32.46V37H93.0248V32.53C93.0248 32.25 92.9782 32.0633 92.8848 31.97C92.7982 31.87 92.6782 31.82 92.5248 31.82C92.3782 31.82 92.2248 31.8633 92.0648 31.95C91.9048 32.03 91.7582 32.1433 91.6248 32.29C91.6248 32.3167 91.6248 32.3433 91.6248 32.37C91.6248 32.3967 91.6248 32.4267 91.6248 32.46V37H90.6448V32.53C90.6448 32.25 90.5982 32.0633 90.5048 31.97C90.4182 31.87 90.2982 31.82 90.1448 31.82C89.9982 31.82 89.8448 31.8633 89.6848 31.95C89.5315 32.03 89.3848 32.1433 89.2448 32.29V37H88.2548ZM95.9217 37.08C95.6951 37.08 95.4951 37.0167 95.3217 36.89C95.1484 36.7567 95.0117 36.59 94.9117 36.39C94.8117 36.1833 94.7617 35.9667 94.7617 35.74C94.7617 35.38 94.8217 35.0767 94.9417 34.83C95.0617 34.5833 95.2251 34.3767 95.4317 34.21C95.6451 34.0367 95.8884 33.8867 96.1617 33.76C96.4417 33.6333 96.7351 33.51 97.0417 33.39V32.98C97.0417 32.7467 97.0284 32.5533 97.0017 32.4C96.9751 32.2467 96.9184 32.1333 96.8317 32.06C96.7517 31.98 96.6284 31.94 96.4617 31.94C96.3151 31.94 96.1951 31.9733 96.1017 32.04C96.0151 32.1067 95.9517 32.2033 95.9117 32.33C95.8717 32.45 95.8517 32.5933 95.8517 32.76V33.05L94.7917 33.01C94.8051 32.37 94.9517 31.9 95.2317 31.6C95.5117 31.2933 95.9451 31.14 96.5317 31.14C97.1051 31.14 97.5117 31.2967 97.7517 31.61C97.9917 31.9233 98.1117 32.3767 98.1117 32.97V35.61C98.1117 35.79 98.1151 35.9633 98.1217 36.13C98.1351 36.2967 98.1484 36.4533 98.1617 36.6C98.1817 36.74 98.1984 36.8733 98.2117 37H97.2317C97.2117 36.8933 97.1851 36.76 97.1517 36.6C97.1251 36.4333 97.1051 36.2833 97.0917 36.15C97.0251 36.3767 96.8951 36.59 96.7017 36.79C96.5151 36.9833 96.2551 37.08 95.9217 37.08ZM96.3417 36.16C96.4484 36.16 96.5484 36.13 96.6417 36.07C96.7351 36.01 96.8184 35.9433 96.8917 35.87C96.9651 35.79 97.0151 35.7267 97.0417 35.68V34.04C96.8751 34.1333 96.7184 34.2267 96.5717 34.32C96.4251 34.4133 96.2951 34.5133 96.1817 34.62C96.0751 34.72 95.9884 34.8367 95.9217 34.97C95.8617 35.0967 95.8317 35.2433 95.8317 35.41C95.8317 35.6433 95.8751 35.8267 95.9617 35.96C96.0484 36.0933 96.1751 36.16 96.3417 36.16ZM100.674 37.08C100.374 37.08 100.13 37.0233 99.9438 36.91C99.7638 36.7967 99.6304 36.6367 99.5438 36.43C99.4638 36.2233 99.4238 35.98 99.4238 35.7V31.93H98.8138V31.22H99.4238V29.53H100.494V31.22H101.424V31.93H100.494V35.63C100.494 35.8567 100.53 36.02 100.604 36.12C100.677 36.2133 100.817 36.26 101.024 36.26C101.077 36.26 101.137 36.2567 101.204 36.25C101.277 36.2433 101.347 36.2367 101.414 36.23V37.02C101.28 37.04 101.157 37.0533 101.044 37.06C100.93 37.0733 100.807 37.08 100.674 37.08ZM102.28 37V31.22H103.35V37H102.28ZM102.28 30.36V29.24H103.35V30.36H102.28ZM106.085 37.08C105.658 37.08 105.322 36.9933 105.075 36.82C104.828 36.6467 104.652 36.4 104.545 36.08C104.445 35.76 104.395 35.3833 104.395 34.95V33.27C104.395 32.8367 104.445 32.46 104.545 32.14C104.652 31.82 104.828 31.5733 105.075 31.4C105.322 31.2267 105.658 31.14 106.085 31.14C106.512 31.14 106.845 31.2267 107.085 31.4C107.332 31.5733 107.505 31.82 107.605 32.14C107.712 32.46 107.765 32.8367 107.765 33.27V34.95C107.765 35.3833 107.712 35.76 107.605 36.08C107.505 36.4 107.332 36.6467 107.085 36.82C106.845 36.9933 106.512 37.08 106.085 37.08ZM106.085 36.29C106.292 36.29 106.435 36.23 106.515 36.11C106.602 35.99 106.652 35.8333 106.665 35.64C106.685 35.44 106.695 35.2333 106.695 35.02V33.21C106.695 32.99 106.685 32.7833 106.665 32.59C106.652 32.3967 106.602 32.24 106.515 32.12C106.435 31.9933 106.292 31.93 106.085 31.93C105.878 31.93 105.732 31.9933 105.645 32.12C105.558 32.24 105.505 32.3967 105.485 32.59C105.472 32.7833 105.465 32.99 105.465 33.21V35.02C105.465 35.2333 105.472 35.44 105.485 35.64C105.505 35.8333 105.558 35.99 105.645 36.11C105.732 36.23 105.878 36.29 106.085 36.29ZM108.743 37V31.22H109.813V31.79C110.006 31.61 110.22 31.4567 110.453 31.33C110.686 31.2033 110.943 31.14 111.223 31.14C111.456 31.14 111.633 31.2 111.753 31.32C111.88 31.44 111.966 31.59 112.013 31.77C112.066 31.95 112.093 32.1333 112.093 32.32V37H111.023V32.63C111.023 32.4233 110.993 32.2633 110.933 32.15C110.873 32.0367 110.75 31.98 110.563 31.98C110.443 31.98 110.316 32.0167 110.183 32.09C110.056 32.1567 109.933 32.24 109.813 32.34V37H108.743Z" fill="black"/>
</svg>
